<svg width="30" height="30" viewBox="0 0 30 30" fill="inherit" xmlns="http://www.w3.org/2000/svg">
<path fill-rule="evenodd" clip-rule="evenodd" d="M0 0L30 0L30 30L0 30L0 0ZM18.66 23.8329L4.02 5.59295C3.732 5.40095 3.62 5.63295 3.6 5.77295L3.6 14.5329C3.6 14.8689 3.76 15.1129 3.84 15.1929C6.15999 18.0929 10.836 23.9289 10.98 24.0729C10.98 24.0729 11.36 24.2929 11.46 24.3129C13.8 24.3729 18.516 24.4569 18.66 24.3129C18.804 24.1689 18.72 23.9329 18.66 23.8329ZM26.34 14.7729L26.34 5.71295C26.292 5.42495 26.08 5.55295 25.98 5.65295C22.88 9.43295 16.608 17.1129 16.32 17.5929C16.032 18.0729 16.4 18.1529 16.62 18.1329L23.52 18.1329C23.616 18.1329 23.76 18.0529 23.82 18.0129C24.58 17.0929 26.124 15.2289 26.22 15.1329C26.316 15.0369 26.34 14.8529 26.34 14.7729Z" fill="inherit"/>
</svg>
