<svg width="178" height="171" viewBox="0 0 178 171" fill="none" xmlns="http://www.w3.org/2000/svg">
<g clip-path="url(#clip0_248_506)">
<path d="M161.563 38.0993C160.553 34.8673 158.129 32.2412 155.099 30.6252L93.4879 1.13258C91.8718 0.324563 90.0538 0.122559 88.4378 0.122559C86.8217 0.122559 85.0037 0.122559 83.3877 0.526567L21.7764 30.2212C18.7463 31.6352 16.5243 34.2613 15.7163 37.6953L0.565965 104.155C-0.0400474 107.589 0.767969 111.023 2.78801 113.851L45.4109 166.574C47.8349 168.998 51.269 170.614 54.7031 170.816H122.576C126.213 171.22 129.647 169.604 131.869 166.574L174.492 113.851C176.512 111.023 177.32 107.589 176.916 104.155L161.563 38.0993Z" fill="#326DE6"/>
<path d="M152.069 101.529C151.867 101.529 151.665 101.529 151.665 101.327C151.665 101.125 151.261 101.125 150.857 101.125C150.049 100.923 149.241 100.923 148.433 100.923C148.029 100.923 147.625 100.923 147.221 100.721H147.019C144.797 100.519 142.373 100.115 140.151 99.5085C139.545 99.3065 138.939 98.7005 138.737 98.0945L137.121 97.6905C137.929 91.8324 137.525 85.7723 136.313 79.9141C134.899 74.056 132.475 68.3999 129.243 63.3498L130.455 62.1378V61.9358C130.455 61.3298 130.657 60.5217 131.061 60.1177C132.879 58.5017 134.697 57.2897 136.717 56.0777C137.121 55.8756 137.525 55.6736 137.929 55.4716C138.737 55.0676 139.343 54.6636 140.151 54.2596C140.353 54.0576 140.555 54.0576 140.757 53.8556C140.959 53.6536 140.757 53.6536 140.757 53.4516C142.575 52.0376 142.979 49.6135 141.565 47.7955C140.959 46.9875 139.747 46.3815 138.737 46.3815C137.727 46.3815 136.717 46.7855 135.909 47.3915L135.707 47.5935C135.505 47.7955 135.303 47.9975 135.101 47.9975C134.495 48.6035 133.889 49.2095 133.485 49.8155C133.283 50.2195 132.879 50.4215 132.677 50.6235C131.263 52.2396 129.445 53.8556 127.627 55.0676C127.223 55.2696 126.819 55.4716 126.415 55.4716C126.213 55.4716 125.809 55.4716 125.607 55.2696H125.405L123.789 56.2797C122.173 54.6636 120.355 53.0476 118.739 51.4316C111.264 45.5734 101.972 41.9374 92.4781 40.9273L92.2761 39.3113V39.5133C91.6701 39.1093 91.4681 38.5033 91.2661 37.8973C91.2661 35.6752 91.2661 33.4532 91.6701 31.0291V30.8271C91.6701 30.4231 91.8721 30.0191 91.8721 29.6151C92.0741 28.8071 92.0741 27.9991 92.2761 27.1911V25.979C92.4781 23.959 90.8621 21.939 88.842 21.7369C87.63 21.5349 86.418 22.141 85.408 23.151C84.5999 23.959 84.1959 24.969 84.1959 25.979V26.9891C84.1959 27.7971 84.3979 28.6051 84.5999 29.4131C84.8019 29.8171 84.8019 30.2211 84.8019 30.6251V30.8271C85.206 33.0492 85.206 35.2712 85.206 37.6953C85.004 38.3013 84.8019 38.9073 84.1959 39.3113V39.7153L83.9939 41.3313C81.7719 41.5334 79.5498 41.9374 77.1258 42.3414C67.6316 44.3614 58.9454 49.4115 52.2793 56.4817L51.0673 55.6736H50.8653C50.6632 55.6736 50.4612 55.8756 50.0572 55.8756C49.6532 55.8756 49.2492 55.6736 48.8452 55.4716C47.0272 54.0576 45.2091 52.4416 43.7951 50.8255C43.5931 50.4215 43.1891 50.2195 42.9871 50.0175C42.3811 49.4115 41.9771 48.8055 41.3711 48.1995C41.1691 47.9975 40.967 47.9975 40.765 47.7955C40.563 47.5935 40.563 47.5935 40.563 47.5935C39.755 46.9875 38.745 46.5835 37.735 46.5835C36.523 46.5835 35.5129 46.9875 34.9069 47.9975C33.6949 49.8155 34.0989 52.2396 35.7149 53.6536C35.9169 53.6536 35.9169 53.8556 35.9169 53.8556C35.9169 53.8556 36.321 54.2596 36.523 54.2596C37.129 54.6636 37.937 55.0676 38.745 55.4716C39.149 55.6736 39.553 55.8756 39.957 56.0777C41.9771 57.2897 43.9971 58.5017 45.6131 60.1177C46.0172 60.5217 46.4212 61.3298 46.2192 61.9358V61.7338L47.4312 62.9458C47.2292 63.3498 47.0272 63.5518 46.8252 63.9558C40.563 73.854 37.937 85.5703 39.755 97.0845L38.139 97.4885C38.139 97.6905 37.937 97.6905 37.937 97.6905C37.735 98.2965 37.129 98.7005 36.523 99.1045C34.3009 99.7105 32.0789 100.115 29.6548 100.317C29.2508 100.317 28.8468 100.317 28.4428 100.519C27.6348 100.519 26.8268 100.721 26.0187 100.721C25.8167 100.721 25.6147 100.923 25.2107 100.923C25.0087 100.923 25.0087 100.923 24.8067 101.125C22.5847 101.529 21.1706 103.549 21.5746 105.771C21.9787 107.589 23.7967 108.801 25.6147 108.599C26.0187 108.599 26.2207 108.599 26.6248 108.397C26.8268 108.397 26.8268 108.397 26.8268 108.195C26.8268 107.993 27.4328 108.195 27.6348 108.195C28.4428 107.993 29.2508 107.589 29.8568 107.387C30.2608 107.185 30.6648 106.983 31.0688 106.983H31.2708C33.4929 106.175 35.5129 105.569 37.937 105.165H38.139C38.745 105.165 39.351 105.367 39.755 105.771C39.957 105.771 39.957 105.973 39.957 105.973L41.7751 105.771C44.8051 115.063 50.4612 123.345 58.3394 129.405C60.1574 130.819 61.7735 132.031 63.7935 133.041L62.7835 134.455C62.7835 134.657 62.9855 134.657 62.9855 134.657C63.3895 135.263 63.3895 136.071 63.1875 136.677C62.3795 138.697 61.1675 140.717 59.9554 142.535V142.737C59.7534 143.141 59.5514 143.343 59.1474 143.747C58.7434 144.151 58.3394 144.959 57.7334 145.767C57.5314 145.969 57.5314 146.172 57.3294 146.374C57.3294 146.374 57.3294 146.576 57.1274 146.576C56.1174 148.596 56.9254 151.02 58.7434 152.03C59.1474 152.232 59.7534 152.434 60.1574 152.434C61.7735 152.434 63.1875 151.424 63.9955 150.01C63.9955 150.01 63.9955 149.808 64.1975 149.808C64.1975 149.606 64.3995 149.404 64.6015 149.202C64.8035 148.394 65.2075 147.788 65.4096 146.98L65.8136 145.767C66.4196 143.545 67.4296 141.525 68.4396 139.505C68.8436 138.899 69.4496 138.495 70.0556 138.293C70.2576 138.293 70.2576 138.293 70.2576 138.091L71.0657 136.475C76.7218 138.697 82.5799 139.707 88.64 139.707C92.2761 139.707 95.9122 139.303 99.5482 138.293C101.77 137.889 103.992 137.081 106.012 136.475L106.82 137.889C107.022 137.889 107.022 137.889 107.022 138.091C107.628 138.293 108.234 138.697 108.638 139.303C109.648 141.323 110.658 143.343 111.264 145.565V145.767L111.668 146.98C111.87 147.788 112.073 148.596 112.477 149.202C112.679 149.404 112.679 149.606 112.881 149.808C112.881 149.808 112.881 150.01 113.083 150.01C113.891 151.424 115.305 152.434 116.921 152.434C117.527 152.434 117.931 152.232 118.537 152.03C119.345 151.626 120.153 150.818 120.355 149.808C120.557 148.798 120.557 147.788 120.153 146.778C120.153 146.576 119.951 146.576 119.951 146.576C119.951 146.374 119.749 146.171 119.547 145.969C119.143 145.161 118.739 144.555 118.133 143.949C117.931 143.545 117.729 143.343 117.325 142.939V142.535C115.911 140.717 114.901 138.697 114.093 136.677C113.891 136.071 113.891 135.263 114.295 134.657C114.295 134.455 114.497 134.455 114.497 134.455L113.891 132.839C124.193 126.577 132.071 116.881 135.707 105.367L137.323 105.569C137.525 105.569 137.525 105.367 137.525 105.367C137.929 104.963 138.535 104.761 139.141 104.761H139.343C141.565 105.165 143.787 105.771 145.807 106.579H146.009C146.413 106.781 146.817 106.983 147.221 106.983C148.029 107.387 148.635 107.791 149.443 107.993C149.645 107.993 149.847 108.195 150.251 108.195C150.453 108.195 150.453 108.195 150.655 108.397C151.059 108.599 151.261 108.599 151.665 108.599C153.483 108.599 155.099 107.387 155.705 105.771C155.503 103.549 153.887 101.933 152.069 101.529ZM93.6901 95.2665L88.236 97.8925L82.7819 95.2665L81.3679 89.4083L85.206 84.5602H91.2661L95.1042 89.4083L93.6901 95.2665ZM126.617 82.1362C127.627 86.3783 127.829 90.6204 127.425 94.8625L108.234 89.4083C106.416 89.0043 105.406 87.1863 105.81 85.3683C106.012 84.7622 106.214 84.3582 106.618 83.9542L121.769 70.2179C123.991 73.854 125.607 77.8941 126.617 82.1362ZM115.709 62.7438L99.1442 74.46C97.7302 75.268 95.7102 75.066 94.7002 73.652C94.2961 73.248 94.0941 72.844 94.0941 72.238L92.8821 51.8356C101.77 52.8456 109.648 56.6837 115.709 62.7438ZM79.1458 52.4416L83.1859 51.6336L82.1759 71.834C82.1759 73.652 80.5599 75.066 78.7418 75.066C78.1358 75.066 77.7318 74.864 77.1258 74.662L60.3594 62.7438C65.6116 57.6937 72.0757 54.0576 79.1458 52.4416ZM54.5013 70.2179L69.4496 83.5502C70.8637 84.7622 71.0657 86.7823 69.8536 88.1963C69.4496 88.8023 69.0456 89.0043 68.2376 89.2063L48.6432 94.8625C48.0372 86.3783 50.0572 77.6921 54.5013 70.2179ZM51.0673 104.357L71.0657 100.923C72.6817 100.923 74.2977 101.933 74.4997 103.549C74.7017 104.155 74.7017 104.963 74.2977 105.569L66.6216 124.153C59.5514 119.507 53.8953 112.437 51.0673 104.357ZM96.9222 129.405C94.0941 130.011 91.2661 130.415 88.236 130.415C83.9939 130.415 79.5498 129.607 75.5098 128.395L85.408 110.417C86.418 109.205 88.034 108.801 89.448 109.609C90.0541 110.013 90.4581 110.417 91.0641 111.023L100.76 128.597C99.5483 128.799 98.3362 129.001 96.9222 129.405ZM121.567 111.831C118.537 116.679 114.295 120.921 109.446 123.951L101.568 104.963C101.164 103.347 101.972 101.731 103.386 101.125C103.992 100.923 104.598 100.721 105.204 100.721L125.405 104.155C124.395 106.983 123.183 109.609 121.567 111.831Z" fill="white"/>
</g>
<defs>
<clipPath id="clip0_248_506">
<rect width="178" height="171" fill="white"/>
</clipPath>
</defs>
</svg>
