<svg width="577" height="594" viewBox="0 0 577 594" fill="none" xmlns="http://www.w3.org/2000/svg">
<g clip-path="url(#clip0_248_492)">
<path d="M430.94 432.302C434.717 400.834 433.585 396.22 457.024 401.317L462.974 401.84C480.997 402.66 504.573 398.941 518.424 392.506C548.24 378.672 565.92 355.573 536.52 361.642C469.457 375.477 464.846 352.769 464.846 352.769C535.661 247.698 565.264 114.321 539.712 81.6729C470.018 -7.37909 349.381 34.7316 347.362 35.8249L346.72 35.9436C333.469 33.1942 318.64 31.5516 301.981 31.2822C271.633 30.7836 248.605 39.2382 231.137 52.4876C231.137 52.4876 15.9264 -36.1764 25.9384 163.992C28.0677 206.573 86.9744 486.198 157.232 401.738C182.91 370.854 207.726 344.741 207.726 344.741C220.049 352.928 234.802 357.104 250.276 355.604L251.472 354.584C251.097 358.418 251.262 362.169 251.95 366.609C233.854 386.832 239.172 390.382 202.986 397.83C166.377 405.376 187.885 418.809 201.924 422.32C218.948 426.577 258.33 432.608 284.948 395.354L283.888 399.605C290.988 405.285 290.508 440.43 291.514 465.541C292.522 490.653 294.204 514.086 299.322 527.902C304.441 541.716 310.481 577.302 358.037 567.11C397.782 558.593 428.17 546.336 430.94 432.302Z" fill="black" stroke="black" stroke-width="49.8604"/>
<path d="M536.527 361.64C469.457 375.474 464.847 352.766 464.847 352.766C535.661 247.689 565.264 114.309 539.717 81.6649C470.024 -7.3818 349.381 34.7315 347.368 35.8249L346.72 35.9409C333.469 33.1902 318.64 31.5515 301.973 31.2795C271.625 30.7822 248.605 39.2355 231.137 52.4822C231.137 52.4822 15.9225 -36.1778 25.9319 163.989C28.0612 206.573 86.9666 486.198 157.227 401.738C182.907 370.854 207.719 344.741 207.719 344.741C220.043 352.928 234.796 357.104 250.263 355.604L251.464 354.584C251.091 358.418 251.261 362.169 251.945 366.609C233.845 386.832 239.164 390.382 202.981 397.83C166.369 405.376 187.877 418.809 201.92 422.32C218.944 426.577 258.329 432.608 284.941 395.354L283.88 399.605C290.972 405.285 295.952 436.553 295.117 464.897C294.283 493.242 293.725 512.702 299.313 527.902C304.901 543.102 310.471 577.302 358.036 567.11C397.781 558.593 418.377 536.521 421.243 499.704C423.276 473.529 427.877 477.398 428.168 453.997L431.859 442.918C436.115 407.437 432.535 395.99 457.021 401.314L462.972 401.837C480.995 402.657 504.583 398.938 518.427 392.504C548.237 378.669 565.917 355.57 536.524 361.64H536.527Z" fill="#336791"/>
<path d="M287.821 381.979C285.975 448 288.285 514.481 294.745 530.639C301.209 546.796 315.043 578.222 362.612 568.032C402.353 559.512 416.813 543.024 423.088 506.63C427.709 479.854 436.619 405.492 437.761 390.256" stroke="white" stroke-width="16.6201" stroke-linecap="round" stroke-linejoin="round"/>
<path d="M230.805 51.0076C230.805 51.0076 15.4438 -37.0138 25.4558 163.153C27.5851 205.737 86.4944 485.372 156.753 400.908C182.428 370.02 205.648 345.794 205.648 345.794" stroke="white" stroke-width="16.6201" stroke-linecap="round" stroke-linejoin="round"/>
<path d="M347.132 34.9425C339.677 37.2798 466.929 -11.5762 539.248 80.8318C564.793 113.477 535.191 246.857 464.377 351.937" stroke="white" stroke-width="16.6201" stroke-linecap="round" stroke-linejoin="round"/>
<path d="M464.376 351.937C464.376 351.937 468.99 374.652 536.061 360.808C565.448 354.738 547.762 377.84 517.958 391.681C493.498 403.033 438.66 405.942 437.764 390.256C435.458 349.782 466.625 362.078 464.376 351.937ZM464.376 351.937C462.342 342.804 448.405 333.84 439.185 311.486C431.136 291.976 328.79 142.354 467.568 164.576C472.652 163.524 431.373 32.573 301.497 30.4437C171.65 28.3144 175.91 190.126 175.91 190.126" stroke="white" stroke-width="16.6201" stroke-linecap="round" stroke-linejoin="bevel"/>
<path d="M251.472 365.779C233.369 386 238.693 389.551 202.508 397.001C165.896 404.548 187.407 417.979 201.445 421.488C218.469 425.748 257.855 431.779 284.467 394.516C292.571 383.17 284.419 365.068 273.287 360.453C267.908 358.225 260.716 355.433 251.472 365.779Z" stroke="white" stroke-width="16.6201" stroke-linecap="round" stroke-linejoin="round"/>
<path d="M250.287 365.425C248.463 353.536 254.193 339.388 260.335 322.836C269.564 298.001 290.859 273.162 273.824 194.384C261.127 135.678 175.963 182.166 175.909 190.126C175.857 198.084 179.761 230.473 174.487 268.19C167.604 317.408 205.804 359.033 249.792 354.774" stroke="white" stroke-width="16.6201" stroke-linecap="round" stroke-linejoin="round"/>
<path d="M230.022 188.933C229.638 191.652 235 198.906 241.99 199.876C248.969 200.849 254.942 195.18 255.321 192.464C255.7 189.745 250.345 186.75 243.352 185.777C236.369 184.802 230.393 186.221 230.024 188.933H230.022Z" fill="white" stroke="white" stroke-width="5.54"/>
<path d="M442.588 183.39C442.966 186.109 437.612 193.364 430.62 194.333C423.636 195.306 417.662 189.637 417.28 186.921C416.91 184.202 422.266 181.208 429.252 180.234C436.237 179.261 442.209 180.678 442.588 183.392V183.39Z" fill="white" stroke="white" stroke-width="2.77"/>
<path d="M467.568 164.576C468.719 185.901 462.975 200.426 462.251 223.128C461.179 256.125 477.983 293.893 452.663 331.708" stroke="white" stroke-width="16.6201" stroke-linecap="round" stroke-linejoin="round"/>
</g>
<defs>
<clipPath id="clip0_248_492">
<rect width="576.095" height="593.844" fill="white"/>
</clipPath>
</defs>
</svg>
