<svg width="40" height="30" viewBox="0 0 40 30" fill="inherit" xmlns="http://www.w3.org/2000/svg">
<path d="M33.5305 2.51245C30.9298 1.32182 28.1844 0.477141 25.3642 0C24.9783 0.689876 24.6291 1.39967 24.3182 2.1264C21.3141 1.67373 18.2593 1.67373 15.2553 2.1264C14.9441 1.39974 14.5949 0.689959 14.2092 0C11.3872 0.481171 8.63996 1.32785 6.03671 2.51868C0.868588 10.165 -0.532408 17.6214 0.16809 24.972C3.19467 27.2082 6.58228 28.9088 10.1837 30C10.9946 28.9093 11.7121 27.7523 12.3287 26.5411C11.1576 26.1037 10.0273 25.564 8.95078 24.9284C9.23409 24.7229 9.51118 24.5112 9.77892 24.3057C12.9112 25.7788 16.33 26.5425 19.7914 26.5425C23.2528 26.5425 26.6715 25.7788 29.8038 24.3057C30.0747 24.5268 30.3518 24.7385 30.632 24.9284C29.5534 25.5651 28.421 26.1058 27.2478 26.5442C27.8636 27.7548 28.5812 28.9109 29.3929 30C32.9973 28.9132 36.3875 27.2133 39.4147 24.9751C40.2366 16.4508 38.0106 9.06289 33.5305 2.51245ZM13.216 20.4514C11.264 20.4514 9.65128 18.6799 9.65128 16.5006C9.65128 14.3213 11.2079 12.5342 13.2098 12.5342C15.2117 12.5342 16.8119 14.3213 16.7777 16.5006C16.7434 18.6799 15.2055 20.4514 13.216 20.4514ZM26.3667 20.4514C24.4116 20.4514 22.8051 18.6799 22.8051 16.5006C22.8051 14.3213 24.3617 12.5342 26.3667 12.5342C28.3717 12.5342 29.9595 14.3213 29.9253 16.5006C29.891 18.6799 28.3561 20.4514 26.3667 20.4514Z" fill="inherit"/>
</svg>
