<svg width="191" height="191" viewBox="0 0 191 191" fill="none" xmlns="http://www.w3.org/2000/svg">
<circle cx="95.5" cy="95.5" r="95.5" fill="#092E20"/>
<path d="M84.5095 32H105.156V127.564C94.5645 129.575 86.7884 130.38 78.343 130.38C53.1382 130.379 40 118.985 40 97.1314C40 76.0831 53.9434 62.4096 75.527 62.4096C78.8784 62.4096 81.4254 62.6768 84.5095 63.4812V32ZM84.5095 80.1039C82.0965 79.3004 80.0857 79.0323 77.5387 79.0323C67.0816 79.0323 61.0483 85.4678 61.0483 96.7284C61.0483 107.723 66.8135 113.755 77.4046 113.755C79.6827 113.755 81.5603 113.621 84.5095 113.22V80.1039Z" fill="white"/>
<path d="M138 63.8834V111.743C138 128.234 136.793 136.143 133.174 142.981C129.822 149.551 125.397 153.706 116.281 158.265L97.1099 149.148C106.226 144.858 110.65 141.106 113.465 135.339C116.415 129.44 117.355 122.603 117.355 104.638V63.8834H138ZM117.355 32.1099H138V53.2922H117.355V32.1099Z" fill="white"/>
</svg>
