<svg width="99" height="88" viewBox="0 0 99 88" fill="none" xmlns="http://www.w3.org/2000/svg">
<g clip-path="url(#clip0_249_527)">
<path fill-rule="evenodd" clip-rule="evenodd" d="M40.4969 28.421C38.8547 30.8277 37.2504 33.3749 35.7076 36.0447C34.1648 38.7144 32.759 41.3761 31.4938 44.0003C32.759 46.6245 34.1648 49.2862 35.7076 51.9559C37.2504 54.6257 38.8547 57.1728 40.4969 59.5796C43.4043 59.7971 46.4144 59.9116 49.5 59.9116C52.5856 59.9116 55.5957 59.7971 58.5031 59.5796C60.1453 57.1728 61.7496 54.6257 63.2924 51.9559C64.8352 49.2862 66.241 46.6245 67.5062 44.0003C66.241 41.3761 64.8352 38.7144 63.2924 36.0447C61.7496 33.3749 60.1453 30.8278 58.5031 28.421C55.5958 28.2035 52.5856 28.089 49.5 28.089C46.4144 28.089 43.4042 28.2035 40.4969 28.421ZM34.9756 28.9712C33.9548 30.5655 32.9545 32.2081 31.9799 33.8945C31.0054 35.5808 30.0817 37.2677 29.2101 38.9481C27.9857 36.0449 26.9448 33.2142 26.0926 30.4986C28.8727 29.8781 31.8469 29.3634 34.9756 28.9712ZM43.7345 23.919C45.6269 23.8329 47.551 23.7887 49.5 23.7887C51.4491 23.7887 53.3731 23.8329 55.2655 23.919C53.3612 21.408 51.4279 19.092 49.5 16.9969C47.5721 19.092 45.6388 21.408 43.7345 23.919ZM46.497 13.9068C43.6627 16.9697 40.8398 20.4617 38.1181 24.3046C33.4261 24.738 28.9877 25.4345 24.9155 26.3553C24.4515 24.5222 24.0838 22.7581 23.8145 21.0783C23.1133 16.7062 23.0969 13.0212 23.697 10.2182C24.2971 7.415 25.4516 5.73282 26.9022 4.89612C28.3527 4.05943 30.3882 3.90161 33.1182 4.78397C35.8479 5.66623 39.0339 7.52296 42.4733 10.3157C43.7947 11.3886 45.14 12.5888 46.497 13.9068ZM52.503 13.9068C55.3373 16.9697 58.1602 20.4617 60.8819 24.3046C65.5739 24.738 70.0123 25.4345 74.0845 26.3553C74.5485 24.5222 74.9162 22.7581 75.1855 21.0783C75.8867 16.7062 75.9031 13.0212 75.303 10.2182C74.7029 7.415 73.5484 5.73281 72.0978 4.89612C70.6473 4.05942 68.6119 3.9016 65.8818 4.78397C63.1521 5.66623 59.9661 7.52296 56.5267 10.3157C55.2053 11.3886 53.86 12.5888 52.503 13.9068ZM78.2566 27.4131C78.7513 25.4589 79.1454 23.5689 79.4357 21.7586C80.1855 17.0831 80.2623 12.8227 79.5122 9.31878C78.7621 5.81517 77.1228 2.82898 74.25 1.17191C71.3772 -0.485158 67.969 -0.410408 64.5569 0.692402C61.1446 1.79531 57.49 3.992 53.812 6.97849C52.3879 8.13483 50.9466 9.42078 49.5 10.8259C48.0534 9.42078 46.6121 8.13483 45.188 6.9785C41.51 3.992 37.8554 1.79531 34.4431 0.692404C31.031 -0.410406 27.6228 -0.485156 24.75 1.17191C21.8772 2.82898 20.2379 5.81517 19.4878 9.31878C18.7377 12.8227 18.8145 17.0831 19.5643 21.7586C19.8546 23.5689 20.2487 25.4589 20.7434 27.4131C18.8021 27.9621 16.9667 28.5662 15.2523 29.2202C10.8245 30.9092 7.0931 32.9729 4.43087 35.3739C1.76888 37.7747 0 40.6861 0 44.0003C0 47.3144 1.76888 50.2259 4.43087 52.6267C7.0931 55.0277 10.8245 57.0913 15.2523 58.7804C16.9667 59.4344 18.8021 60.0384 20.7434 60.5875C20.2487 62.5417 19.8546 64.4317 19.5643 66.242C18.8145 70.9175 18.7377 75.1779 19.4878 78.6818C20.2379 82.1854 21.8772 85.1716 24.75 86.8287C27.6228 88.4858 31.031 88.411 34.4431 87.3082C37.8554 86.2053 41.51 84.0086 45.188 81.0221C46.6121 79.8658 48.0534 78.5798 49.5 77.1747C50.9466 78.5798 52.3879 79.8658 53.812 81.0221C57.49 84.0086 61.1446 86.2053 64.5569 87.3082C67.969 88.411 71.3772 88.4858 74.25 86.8287C77.1228 85.1716 78.7621 82.1854 79.5122 78.6818C80.2623 75.1779 80.1855 70.9175 79.4357 66.242C79.1454 64.4317 78.7513 62.5417 78.2566 60.5875C80.1979 60.0384 82.0333 59.4344 83.7477 58.7804C88.1755 57.0913 91.9069 55.0277 94.5691 52.6267C97.2311 50.2259 99 47.3144 99 44.0003C99 40.6861 97.2311 37.7747 94.5691 35.3739C91.9069 32.9729 88.1755 30.9092 83.7477 29.2202C82.0333 28.5662 80.1979 27.9621 78.2566 27.4131ZM72.9074 30.4986C70.1273 29.8781 67.1531 29.3634 64.0244 28.9712C65.0452 30.5655 66.0455 32.2081 67.0201 33.8945C67.9946 35.5808 68.9183 37.2677 69.7899 38.9481C71.0143 36.0449 72.0552 33.2142 72.9074 30.4986ZM72.2638 44.0003C74.2341 39.724 75.8496 35.5356 77.0875 31.5518C78.9085 32.0669 80.6215 32.6308 82.2123 33.2377C86.3528 34.8171 89.5552 36.6453 91.6849 38.566C93.8147 40.4869 94.6957 42.3269 94.6957 44.0003C94.6957 45.6737 93.8147 47.5137 91.6849 49.4346C89.5552 51.3552 86.3528 53.1835 82.2123 54.7629C80.6215 55.3698 78.9085 55.9337 77.0875 56.4488C75.8496 52.465 74.2341 48.2766 72.2638 44.0003ZM69.7899 49.0525C68.9183 50.7329 67.9946 52.4197 67.0201 54.1061C66.0455 55.7925 65.0452 57.4351 64.0244 59.0294C67.1531 58.6372 70.1273 58.1225 72.9074 57.502C72.0552 54.7863 71.0143 51.9556 69.7899 49.0525ZM74.0845 61.6453C70.0123 62.5661 65.5739 63.2625 60.8819 63.696C58.1602 67.5389 55.3373 71.0309 52.503 74.0938C53.86 75.4118 55.2053 76.612 56.5267 77.6849C59.9661 80.4776 63.1521 82.3344 65.8818 83.2166C68.6119 84.099 70.6473 83.9412 72.0978 83.1045C73.5484 82.2678 74.7029 80.5856 75.303 77.7823C75.9031 74.9794 75.8867 71.2944 75.1855 66.9223C74.9162 65.2425 74.5485 63.4784 74.0845 61.6453ZM49.5 71.0037C51.4279 68.9086 53.3612 66.5926 55.2655 64.0816C53.3731 64.1677 51.4491 64.2119 49.5 64.2119C47.551 64.2119 45.6269 64.1677 43.7345 64.0816C45.6388 66.5926 47.5721 68.9086 49.5 71.0037ZM34.9756 59.0294C33.9548 57.4351 32.9545 55.7925 31.9799 54.1061C31.0054 52.4197 30.0817 50.7329 29.2101 49.0525C27.9857 51.9557 26.9448 54.7863 26.0926 57.502C28.8727 58.1225 31.8469 58.6372 34.9756 59.0294ZM24.9155 61.6453C28.9877 62.5661 33.4261 63.2625 38.1181 63.696C40.8398 67.5389 43.6627 71.0309 46.497 74.0938C45.14 75.4118 43.7947 76.612 42.4733 77.6849C39.0339 80.4776 35.8479 82.3344 33.1182 83.2166C30.3882 84.099 28.3527 83.9412 26.9022 83.1045C25.4516 82.2678 24.2971 80.5856 23.697 77.7823C23.0969 74.9794 23.1133 71.2944 23.8145 66.9223C24.0838 65.2425 24.4515 63.4784 24.9155 61.6453ZM21.9125 56.4488C20.0915 55.9337 18.3785 55.3698 16.7877 54.7629C12.6472 53.1835 9.44476 51.3552 7.31513 49.4346C5.18526 47.5137 4.30435 45.6737 4.30435 44.0003C4.30435 42.3269 5.18526 40.4869 7.31513 38.566C9.44476 36.6453 12.6472 34.8171 16.7877 33.2377C18.3785 32.6308 20.0915 32.0669 21.9125 31.5518C23.1504 35.5356 24.7659 39.724 26.7362 44.0003C24.7659 48.2766 23.1504 52.465 21.9125 56.4488ZM49.5 37.3348C45.8153 37.3348 42.8283 40.319 42.8283 44.0003C42.8283 47.6816 45.8153 50.6658 49.5 50.6658C53.1847 50.6658 56.1717 47.6816 56.1717 44.0003C56.1717 40.319 53.1847 37.3348 49.5 37.3348ZM38.5239 44.0003C38.5239 37.944 43.4381 33.0344 49.5 33.0344C55.5619 33.0344 60.4761 37.944 60.4761 44.0003C60.4761 50.0566 55.5619 54.9662 49.5 54.9662C43.4381 54.9662 38.5239 50.0566 38.5239 44.0003Z" fill="#61DAFB"/>
</g>
<defs>
<clipPath id="clip0_249_527">
<rect width="99" height="88" fill="white"/>
</clipPath>
</defs>
</svg>
